<svg width="336" height="152" viewBox="0 0 336 152" fill="none" xmlns="http://www.w3.org/2000/svg">
<path d="M148.05 80.1111C147.614 80.1111 147.106 79.9556 146.526 79.6446C145.852 79.3129 145.334 78.8101 144.971 78.1363C144.795 77.8357 144.67 77.5506 144.598 77.2811C144.473 76.8665 144.411 75.7313 144.411 73.8758C144.411 72.6007 144.473 71.3827 144.598 70.2216C144.722 69.0502 144.981 67.3191 145.375 65.0281C146.319 59.5339 147.521 53.4541 148.983 46.7885C149.345 45.0262 149.527 44 149.527 43.7097V43.663C149.413 43.6009 148.076 43.5698 145.515 43.5698C142.613 43.5698 140.529 43.606 139.265 43.6786C138.052 43.7512 136.87 43.8756 135.72 44.0518C133.605 44.3731 132.128 44.6427 131.288 44.8604C130.448 45.0677 129.961 45.3009 129.827 45.5601C129.505 46.0888 128.935 47.7111 128.116 50.4271C127.784 51.5156 127.546 52.4071 127.401 53.1016C127.183 54.2315 127.074 55.263 127.074 56.196C127.074 56.9734 127.152 57.6783 127.308 58.3107C127.473 59.0156 127.567 59.5391 127.588 59.8812C127.639 60.327 127.795 60.7779 128.054 61.234C128.23 61.5035 128.318 61.6642 128.318 61.716V61.7316C128.132 61.7316 127.67 61.0785 126.934 59.7724C126.541 59.0363 126.307 58.6683 126.235 58.6683C126.214 58.6683 126.204 58.7098 126.204 58.7927L126.219 59.026C126.24 59.2229 126.25 59.3732 126.25 59.4769C126.25 59.6117 126.235 59.6791 126.204 59.6791C126.09 59.6791 125.924 59.1867 125.706 58.2019C125.582 57.5591 125.52 56.8231 125.52 55.9938C125.52 55.6517 125.53 55.2941 125.551 54.9209C125.571 54.4959 125.582 54.1538 125.582 53.8946C125.582 53.4903 125.556 53.2882 125.504 53.2882L125.473 53.3038C125.338 53.5422 125.266 53.8946 125.255 54.3611C125.255 54.8172 125.255 55.0971 125.255 55.2008C125.255 57.1704 125.405 58.6165 125.706 59.5391C125.934 60.2751 126.048 60.695 126.048 60.7986V60.8142C126.007 60.8142 125.825 60.4254 125.504 59.648C125.069 58.4247 124.851 56.849 124.851 54.9209C124.851 54.0501 124.908 53.2001 125.022 52.3708C125.095 51.8317 125.167 51.303 125.24 50.7847C125.312 50.256 125.364 49.8621 125.395 49.603C125.426 49.3334 125.473 49.0484 125.535 48.7477C125.597 48.4471 125.659 48.188 125.722 47.9703C125.794 47.7526 125.83 47.5349 125.83 47.3172C125.83 47.0995 125.794 46.8922 125.722 46.6952L125.675 46.5708C125.634 46.4464 125.587 46.3583 125.535 46.3065C125.483 46.2443 125.38 46.2132 125.224 46.2132C124.944 46.2235 124.229 46.379 123.078 46.6797C122.55 46.7937 121.705 47.0114 120.544 47.3327C119.176 47.7059 117.584 48.1724 115.77 48.7322C115.688 48.7529 115.62 48.7633 115.568 48.7633C115.496 48.7633 115.459 48.7426 115.459 48.7011L115.491 48.5922C115.491 48.5715 115.459 48.5611 115.397 48.5611C115.045 48.5611 114.112 48.8307 112.598 49.3697C111.8 49.6496 110.282 50.2457 108.043 51.1579C107.431 51.4067 106.975 51.5829 106.674 51.6866C105.98 51.9458 105.565 52.122 105.43 52.2153C105.109 52.4122 104.741 52.5626 104.327 52.6662C104.202 52.7077 104.114 52.7284 104.062 52.7284C104.021 52.7284 104 52.7181 104 52.6973C104 52.5107 105.617 51.7125 108.851 50.3027C111.94 48.9551 114.413 47.9703 116.268 47.3483C116.994 47.1202 117.356 46.9647 117.356 46.8818C117.356 46.8714 117.351 46.8662 117.341 46.8662C117.341 46.8662 117.33 46.8662 117.31 46.8662C117.102 46.8662 116.423 47.0477 115.273 47.4105C114.008 47.8148 112.531 48.3279 110.841 48.9499C109.287 49.5304 108.374 49.8207 108.105 49.8207C108.095 49.8207 108.079 49.8155 108.058 49.8051C108.048 49.7947 108.043 49.7792 108.043 49.7585C108.043 49.717 108.095 49.6963 108.198 49.6963C108.354 49.6963 108.571 49.5563 108.851 49.2764C109.183 48.9654 110.489 48.359 112.77 47.4571C115.04 46.5345 116.175 45.9851 116.175 45.8089L116.159 45.7622C116.159 45.3994 118.595 44.4716 123.467 42.9789C124.327 42.7197 125.069 42.4917 125.691 42.2947C126.323 42.0977 126.701 41.9785 126.826 41.9371C126.96 41.8956 127.028 41.8438 127.028 41.7816C127.028 41.7608 127.017 41.7453 126.997 41.7349C126.986 41.7245 126.971 41.7194 126.95 41.7194C126.608 41.7194 125.411 41.9526 123.358 42.4191C121.264 42.8959 120.072 43.1344 119.782 43.1344H119.735C119.735 43.01 120.819 42.6109 122.985 41.9371C123.897 41.6572 124.789 41.4032 125.659 41.1751C126.25 41.03 126.686 40.9056 126.966 40.8019C127.245 40.6983 127.442 40.5687 127.556 40.4132C127.681 40.2473 127.81 40.0037 127.945 39.6824C128.173 39.1641 128.287 38.7961 128.287 38.5784L128.272 38.454C128.272 38.0911 128.977 36.6347 130.386 34.0845C132.273 30.674 135.17 26.4549 139.078 21.4272C141.732 18.0167 144.297 14.9638 146.775 12.2686C147.355 11.6259 147.759 11.1594 147.988 10.8691C148.495 10.2471 149.693 9.16903 151.579 7.63481C152.388 6.97137 153.108 6.41158 153.741 5.95547C155.534 4.73224 157.027 4.12062 158.219 4.12062C159.12 4.12062 159.846 4.56638 160.395 5.45788C160.841 6.18353 161.069 7.10095 161.08 8.21015C160.955 11.6725 159.608 19.5717 157.037 31.9076C156.031 36.6969 155.518 39.2314 155.498 39.5113C155.518 39.6772 156.259 40.1074 157.721 40.8019C162.469 43.0722 164.842 46.7263 164.842 51.7643C164.842 53.7858 164.511 55.7813 163.847 57.7509C163.267 59.451 162.23 61.7782 160.738 64.7327C158.644 68.8792 156.596 72.2949 154.596 74.9798C152.606 77.6647 150.926 79.2611 149.558 79.769C148.936 79.9971 148.433 80.1111 148.05 80.1111ZM147.21 79.4736C147.262 79.4632 147.288 79.4477 147.288 79.4269C147.288 79.3751 147.138 79.2714 146.837 79.116C146.64 79.0123 146.433 78.8568 146.215 78.6495C146.008 78.4421 145.847 78.2296 145.733 78.0119C145.484 77.5766 145.318 77.3589 145.235 77.3589C145.215 77.3589 145.204 77.3744 145.204 77.4055C145.204 77.4781 145.277 77.6595 145.422 77.9497C145.609 78.3022 145.888 78.6391 146.262 78.9605C146.645 79.2818 146.961 79.4529 147.21 79.4736ZM145.033 77.0168C145.044 77.0168 145.054 76.7472 145.064 76.2082C145.075 75.6691 145.08 75.0212 145.08 74.2645C145.08 73.5181 145.095 72.7718 145.127 72.0254C145.158 71.279 145.194 70.7399 145.235 70.4082C145.277 70.0765 145.298 69.8484 145.298 69.724C145.298 69.6411 145.292 69.5996 145.282 69.5996C145.261 69.5996 145.22 69.6774 145.158 69.8329C145.054 70.1335 144.971 70.6622 144.909 71.4189C144.847 72.1653 144.81 72.808 144.8 73.3471C144.79 73.8861 144.784 74.2541 144.784 74.4511C144.784 76.1615 144.867 77.0168 145.033 77.0168ZM149.527 73.176C149.662 73.176 149.859 73.0516 150.118 72.8028C150.335 72.5955 150.553 72.3415 150.771 72.0409C152.17 70.1335 153.746 67.5316 155.498 64.2351C157.249 60.9282 158.514 58.1759 159.291 55.9783C159.613 55.0868 159.799 54.4389 159.851 54.0346C159.913 53.6303 159.945 53.226 159.945 52.8217C159.945 50.6344 159.566 48.9447 158.809 47.7526C158.053 46.5501 156.757 45.6067 154.922 44.9226C154.715 44.85 154.575 44.8137 154.502 44.8137H154.471C154.347 45.0107 153.756 47.6852 152.699 52.8373C151.714 57.5954 150.921 61.6538 150.32 65.0125C149.605 69.0347 149.247 71.5019 149.247 72.4141C149.247 72.9221 149.34 73.176 149.527 73.176ZM145.515 67.8115C145.588 67.7182 145.697 67.3191 145.842 66.6141C145.894 66.3031 145.92 66.0492 145.92 65.8522C145.92 65.7693 145.909 65.7278 145.888 65.7278C145.847 65.7278 145.785 65.8781 145.702 66.1787C145.546 66.7593 145.469 67.262 145.469 67.6871C145.469 67.77 145.479 67.8115 145.5 67.8115H145.515ZM145.951 65.3235C146.013 65.3235 146.049 65.2561 146.059 65.1214C146.059 65.0488 146.044 64.9763 146.013 64.9037C145.982 64.8208 145.956 64.7793 145.935 64.7793C145.904 64.7793 145.883 64.857 145.873 65.0125C145.873 65.2199 145.899 65.3235 145.951 65.3235ZM127.401 59.9278C127.432 59.9278 127.453 59.8916 127.463 59.819C127.463 59.7257 127.406 59.5909 127.292 59.4147C127.188 59.2281 127.121 59.1348 127.09 59.1348C127.069 59.1348 127.059 59.1452 127.059 59.1659C127.059 59.2385 127.105 59.3992 127.199 59.648C127.271 59.8345 127.339 59.9278 127.401 59.9278ZM148.858 51.4534C148.931 51.4534 148.967 51.386 148.967 51.2512C148.967 51.1683 148.952 51.0905 148.92 51.018C148.889 50.935 148.863 50.8936 148.843 50.8936C148.812 50.8936 148.791 50.9713 148.781 51.1268C148.781 51.3445 148.806 51.4534 148.858 51.4534ZM149.091 50.2405C149.154 50.2405 149.185 50.1316 149.185 49.914C149.185 49.6963 149.154 49.5874 149.091 49.5874C149.05 49.5874 149.029 49.6963 149.029 49.914C149.029 50.1316 149.05 50.2405 149.091 50.2405ZM149.309 49.2142C149.371 49.2142 149.408 49.1417 149.418 48.9965C149.418 48.924 149.402 48.8514 149.371 48.7788C149.34 48.6959 149.314 48.6544 149.294 48.6544C149.263 48.6544 149.242 48.7322 149.231 48.8877C149.231 49.1054 149.257 49.2142 149.309 49.2142ZM149.947 46.2287C150.009 46.2287 150.107 45.9385 150.242 45.3579C150.408 44.7049 150.491 44.2539 150.491 44.0051C150.491 43.9637 150.486 43.9378 150.475 43.9274L150.46 43.9118C150.377 43.9118 150.263 44.1814 150.118 44.7204C149.983 45.2491 149.916 45.6793 149.916 46.011C149.916 46.1562 149.926 46.2287 149.947 46.2287ZM133.061 39.558C133.123 39.558 133.19 39.5476 133.263 39.5269C133.667 39.4336 134.73 39.2625 136.45 39.0137C138.244 38.7546 141.099 38.625 145.018 38.625C148.863 38.6043 150.786 38.5887 150.786 38.5784C150.786 38.5162 151.382 35.6499 152.574 29.9795C154.938 18.6076 156.12 12.1234 156.12 10.527C156.12 10.413 156.114 10.3249 156.104 10.2627L156.073 10.2471C155.752 10.2471 154.16 11.7036 151.299 14.6165C150.045 15.8916 148.91 17.0993 147.894 18.2396C142.908 23.9203 138.679 29.627 135.206 35.3596C134.958 35.7846 134.678 36.2407 134.367 36.728C134.066 37.2048 133.812 37.6091 133.605 37.9408C133.128 38.6665 132.89 39.1485 132.89 39.3869C132.89 39.501 132.947 39.558 133.061 39.558ZM113.065 49.6652C113.023 49.6652 113.003 49.6548 113.003 49.6341C113.003 49.603 113.055 49.5563 113.158 49.4941C113.262 49.4216 113.376 49.3645 113.5 49.3231C113.635 49.2816 113.749 49.2609 113.842 49.2609C113.936 49.2609 113.982 49.2764 113.982 49.3075C113.982 49.349 113.899 49.406 113.734 49.4786C113.402 49.603 113.179 49.6652 113.065 49.6652ZM125.115 48.3279C125.105 48.3279 125.1 48.3175 125.1 48.2968C125.1 48.2553 125.12 48.1776 125.162 48.0636C125.203 47.9495 125.245 47.8718 125.286 47.8303C125.338 47.7889 125.374 47.7681 125.395 47.7681C125.447 47.7681 125.473 47.8044 125.473 47.877C125.473 47.9599 125.411 48.0636 125.286 48.188C125.203 48.2813 125.146 48.3279 125.115 48.3279Z" fill="black"/>
<path d="M170.86 64.9192C169.543 64.9192 168.641 64.3698 168.154 63.271C167.833 62.5868 167.61 61.7782 167.486 60.8453C167.351 59.9123 167.284 59.0882 167.284 58.3729C167.284 57.4088 167.47 55.3822 167.843 52.293C168.31 48.3849 168.631 46.4309 168.807 46.4309L168.885 46.4464C168.906 46.4464 168.932 46.436 168.963 46.4153C168.994 46.3842 169.009 46.3324 169.009 46.2598C169.009 46.1769 169.025 46.1354 169.056 46.1354C169.098 46.1354 169.16 46.208 169.243 46.3531C169.429 46.6123 169.621 46.747 169.818 46.7574C170.025 46.7678 170.129 46.9595 170.129 47.3327C170.129 47.6645 170.155 47.8303 170.207 47.8303C170.279 47.8303 170.341 47.5919 170.393 47.115C170.445 46.7315 170.518 46.5397 170.611 46.5397C170.735 46.5397 170.798 46.7574 170.798 47.1928C170.798 47.8977 171.114 48.5974 171.746 49.292C171.974 49.5408 172.14 49.8155 172.244 50.1161C172.358 50.4064 172.466 50.5515 172.57 50.5515C172.674 50.5515 172.726 50.7225 172.726 51.0646L172.71 51.3912C172.503 53.7754 172.399 55.2423 172.399 55.7917C172.399 56.1752 172.435 56.367 172.508 56.367C172.622 56.367 172.98 55.8539 173.581 54.8276C174.182 53.791 174.804 52.6248 175.447 51.329C176.597 49.0173 177.344 47.5919 177.686 47.0528C177.924 46.6797 178.173 46.3272 178.432 45.9955C178.992 45.218 179.282 44.7515 179.303 44.596C179.324 44.4302 179.754 43.9067 180.593 43.0255C181.226 42.3517 181.557 42.0148 181.588 42.0148L181.557 42.077C181.423 42.2636 181.355 42.3828 181.355 42.4346C181.355 42.4554 181.366 42.4657 181.386 42.4657C181.48 42.4657 181.77 42.2584 182.257 41.8438C182.744 41.4187 183.18 41.1492 183.563 41.0352C183.698 40.9937 183.791 40.973 183.843 40.973C183.874 40.973 183.89 40.9833 183.89 41.0041C183.89 41.0559 183.703 41.2373 183.33 41.5483C182.853 41.963 182.449 42.4346 182.117 42.9633L181.697 43.7097C182.485 42.9841 182.941 42.5694 183.066 42.4657C183.242 42.331 183.345 42.2636 183.377 42.2636C183.449 42.2636 183.485 42.3102 183.485 42.4035C183.485 42.6212 183.366 42.9374 183.128 43.3521C183.024 43.549 182.972 43.7097 182.972 43.8341C182.972 43.9378 183.003 44.0207 183.066 44.0829C183.128 44.1347 183.159 44.2332 183.159 44.3783C183.159 44.7204 182.957 45.472 182.552 46.633L182.521 46.7419C182.521 46.7626 182.532 46.773 182.552 46.773C182.615 46.773 182.786 46.6123 183.066 46.2909C183.459 45.8555 183.724 45.6378 183.859 45.6378C183.9 45.6378 183.921 45.6897 183.921 45.7933C183.921 46.2495 183.314 47.4675 182.102 49.4475C181.231 50.878 180.324 52.4952 179.381 54.2989C178.437 56.1027 177.478 57.8287 176.504 59.4769C175.54 61.1252 174.814 62.2706 174.327 62.9134C173.218 64.2506 172.062 64.9192 170.86 64.9192ZM171.482 64.0018C171.658 64.0018 172.047 63.8049 172.648 63.4109C173.208 63.017 173.488 62.789 173.488 62.7268C173.488 62.7164 173.482 62.7112 173.472 62.7112C173.379 62.7112 173.114 62.8356 172.679 63.0844C171.85 63.5612 171.435 63.8567 171.435 63.9707C171.435 63.9915 171.451 64.0018 171.482 64.0018ZM175.151 60.5654C175.213 60.5654 175.379 60.3736 175.649 59.99C175.866 59.6687 176.105 59.2903 176.364 58.8549C176.976 57.8079 177.281 57.2222 177.281 57.0978L177.266 57.0823C177.193 57.0823 176.644 57.9323 175.618 59.6324C175.296 60.1611 175.136 60.4669 175.136 60.5498C175.136 60.5602 175.141 60.5654 175.151 60.5654Z" fill="black"/>
<path d="M185.927 67.5938C184.983 67.5938 184.164 67.1895 183.47 66.3809C182.962 65.8004 182.63 65.2458 182.475 64.7171C182.361 64.3543 182.304 63.6494 182.304 62.6024C182.304 61.12 182.361 59.933 182.475 59.0415C182.765 56.7298 183.444 53.8428 184.512 50.3804C185.113 48.4108 185.683 46.7367 186.222 45.3579C186.761 43.9689 187.129 43.2743 187.326 43.2743L187.404 43.2899C187.518 43.2899 187.637 43.1914 187.761 42.9944C187.834 42.8597 187.886 42.7923 187.917 42.7923C187.958 42.7923 187.979 42.8441 187.979 42.9478L187.932 43.492C187.932 43.7512 187.995 43.8807 188.119 43.8807L188.259 43.8652C188.373 43.8652 188.43 43.9378 188.43 44.0829C188.43 44.228 188.357 44.4924 188.212 44.8759C188.119 45.1143 188.072 45.2646 188.072 45.3268C188.072 45.3476 188.077 45.3579 188.088 45.3579C188.119 45.3579 188.197 45.2646 188.321 45.0781C188.549 44.8085 188.663 44.5753 188.663 44.3783C188.663 44.171 188.746 44.0207 188.912 43.9274C188.953 43.8963 188.984 43.8807 189.005 43.8807C189.036 43.8807 189.052 43.9118 189.052 43.974C189.052 44.0466 189.031 44.1554 188.99 44.3006C188.845 44.736 188.772 45.1299 188.772 45.4823C188.772 45.897 188.886 46.3479 189.114 46.8352C189.498 47.6437 189.689 48.2035 189.689 48.5145V49.0121C189.689 49.6237 189.503 50.4582 189.13 51.5156C188.694 52.7906 188.445 53.6718 188.383 54.159C188.383 54.4907 188.316 54.7499 188.181 54.9365C187.995 55.2682 187.709 56.5277 187.326 58.715C187.17 59.565 187.093 60.13 187.093 60.4099C187.093 60.8245 187.191 61.0319 187.388 61.0319C187.948 61.0319 189.311 59.3888 191.477 56.1027L192.239 54.9053C192.633 54.273 193.012 53.7547 193.374 53.3504C193.779 52.9046 194.121 52.4174 194.401 51.8887C194.691 51.3601 195.126 50.7225 195.707 49.9762C196.422 49.0639 196.811 48.6078 196.873 48.6078V48.6233C196.873 48.6648 196.826 48.784 196.733 48.981C196.712 49.0328 196.702 49.0743 196.702 49.1054C196.702 49.1261 196.707 49.1365 196.717 49.1365C196.79 49.1365 197.044 48.8981 197.479 48.4212C198.008 47.8407 198.324 47.5504 198.428 47.5504C198.459 47.5504 198.474 47.566 198.474 47.5971C198.474 47.7422 198.262 48.1724 197.837 48.8877C197.422 49.603 197.215 50.0228 197.215 50.1472C197.215 50.1679 197.225 50.1783 197.246 50.1783C197.319 50.1783 197.552 49.9606 197.946 49.5252C198.298 49.1417 198.537 48.9499 198.661 48.9499C198.723 48.9499 198.754 49.0017 198.754 49.1054C198.754 49.2712 198.671 49.5719 198.506 50.0073C198.423 50.2042 198.381 50.3649 198.381 50.4893C198.381 50.6344 198.433 50.7381 198.537 50.8003C198.651 50.8521 198.708 50.961 198.708 51.1268C198.697 51.4171 198.547 51.9302 198.257 52.6662C198.163 52.8943 198.086 53.0394 198.024 53.1016C197.909 53.2364 197.852 53.3867 197.852 53.5525C197.852 53.5733 197.863 53.5836 197.884 53.5836C197.987 53.5836 198.236 53.3556 198.63 52.8995C198.972 52.4952 199.205 52.293 199.33 52.293C199.392 52.3034 199.423 52.3552 199.423 52.4485C199.423 52.6766 199.242 53.1431 198.879 53.848C198.516 54.5425 197.816 55.6258 196.78 57.0978C195.753 58.5699 194.681 60.0367 193.561 61.4983C192.452 62.96 191.586 64.0174 190.964 64.6704C189.067 66.6193 187.388 67.5938 185.927 67.5938ZM187.155 66.8318C187.196 66.8318 187.274 66.8111 187.388 66.7696C187.502 66.7178 187.58 66.6712 187.621 66.6297C187.663 66.5882 187.684 66.5571 187.684 66.5364C187.684 66.4846 187.647 66.4586 187.575 66.4586C187.492 66.4586 187.388 66.5208 187.264 66.6452C187.17 66.7282 187.124 66.7852 187.124 66.8163C187.124 66.8267 187.134 66.8318 187.155 66.8318ZM184.589 66.4431C184.62 66.4431 184.636 66.4172 184.636 66.3653C184.636 66.3135 184.47 66.1477 184.138 65.8678L183.625 65.4324C184.195 66.1062 184.517 66.4431 184.589 66.4431ZM188.134 66.4275C188.311 66.4275 188.762 66.0906 189.487 65.4168C189.85 65.0644 190.031 64.8726 190.031 64.8415C190.011 64.8415 189.928 64.8985 189.783 65.0125C189.295 65.4168 188.845 65.7589 188.43 66.0388C188.202 66.1943 188.088 66.3135 188.088 66.3964C188.088 66.4172 188.103 66.4275 188.134 66.4275ZM183.61 65.2613C183.651 65.2613 183.672 65.2302 183.672 65.168C183.672 65.0229 183.589 64.8 183.423 64.4994C183.278 64.2299 183.174 64.0951 183.112 64.0951C183.091 64.0951 183.081 64.1159 183.081 64.1573C183.081 64.3024 183.117 64.4683 183.19 64.6549C183.263 64.8311 183.34 64.9763 183.423 65.0903C183.506 65.2043 183.568 65.2613 183.61 65.2613ZM191.726 39.6824C191.457 39.6824 191.281 39.5994 191.198 39.4336C191.104 39.2263 190.949 39.1226 190.731 39.1226C190.638 39.1226 190.488 39.0708 190.28 38.9671C190.073 38.8634 189.866 38.7287 189.658 38.5628C189.14 38.1896 188.772 38.003 188.554 38.003C188.337 38.003 188.181 37.9097 188.088 37.7231V37.6765C188.088 37.4588 188.311 36.8472 188.756 35.8416C189.244 34.7532 189.555 34.2089 189.689 34.2089C189.741 34.2089 189.928 34.2919 190.249 34.4577C190.57 34.6132 190.938 34.805 191.353 35.0331C191.768 35.2611 192.151 35.484 192.504 35.7017C192.867 35.909 193.126 36.0697 193.281 36.1837C193.437 36.2978 193.592 36.417 193.748 36.5414L192.504 39.3403C192.359 39.5683 192.099 39.6824 191.726 39.6824Z" fill="black"/>
<path d="M198.226 61.7316C197.645 61.7316 197.091 61.5657 196.562 61.234C195.816 60.7572 195.328 60.0937 195.1 59.2437C194.883 58.3936 194.774 57.4866 194.774 56.5225C194.774 54.4803 195.23 51.2201 196.142 46.7419C197.137 41.8178 197.764 39.3558 198.024 39.3558H198.055C198.106 39.3558 198.163 39.3247 198.226 39.2625C198.288 39.19 198.34 39.1019 198.381 38.9982C198.423 38.8945 198.459 38.8427 198.49 38.8427C198.531 38.8427 198.557 39.0345 198.568 39.418C198.578 39.7912 198.599 40.0037 198.63 40.0556C198.661 40.1074 198.692 40.1333 198.723 40.1333C198.765 40.1333 198.827 40.097 198.91 40.0245C198.993 39.9519 199.055 39.9156 199.096 39.9156C199.148 39.9156 199.174 39.983 199.174 40.1178C199.174 40.2318 199.159 40.408 199.127 40.6464C199.096 40.8745 199.06 41.1077 199.019 41.3462C198.988 41.5742 198.956 41.7505 198.925 41.8749L198.91 42.0148C198.91 42.1081 198.936 42.1599 198.988 42.1703C199.112 42.1703 199.242 41.7505 199.376 40.9108C199.48 40.1644 199.589 39.7912 199.703 39.7912C199.744 39.7912 199.77 39.8793 199.781 40.0556C199.781 40.2318 199.755 40.4495 199.703 40.7086C199.63 41.1233 199.594 41.5587 199.594 42.0148C199.594 43.1136 199.708 43.8341 199.936 44.1762C200.112 44.4042 200.237 44.9174 200.309 45.7156C200.402 46.5449 200.511 46.9595 200.636 46.9595C200.708 46.9595 200.745 46.9906 200.745 47.0528C200.745 47.1047 200.745 47.1461 200.745 47.1772C200.745 47.4468 200.589 48.4523 200.278 50.1938C199.977 51.9354 199.827 53.1172 199.827 53.7391C199.827 54.0916 199.884 54.2678 199.998 54.2678C200.164 54.2678 200.574 53.8169 201.227 52.915C201.89 52.0028 203.429 49.7325 205.845 46.1043C208.726 41.7712 210.608 39.0397 211.489 37.9097C212.826 36.3444 214.049 35.5617 215.158 35.5617C215.573 35.5617 215.899 35.7224 216.138 36.0438C216.449 36.531 216.677 37.0649 216.822 37.6454C216.977 38.2259 217.055 38.7183 217.055 39.1226C217.055 39.7653 216.713 41.8956 216.029 45.5134C215.531 48.0947 215.101 50.1057 214.738 51.5467C214.593 52.0857 214.469 52.8943 214.365 53.9724C214.262 55.0401 214.148 55.7813 214.023 56.196C213.878 56.7039 213.806 57.2326 213.806 57.782C213.806 58.2796 213.754 58.5284 213.65 58.5284C213.64 58.5284 213.624 58.5232 213.603 58.5128C213.593 58.5025 213.577 58.4973 213.557 58.4973C213.484 58.4973 213.417 58.5854 213.355 58.7616C213.303 58.9275 213.272 59.1141 213.261 59.3214C213.251 59.5184 213.246 59.648 213.246 59.7102C213.246 59.99 213.261 60.2803 213.292 60.5809C213.313 60.7572 213.324 60.9126 213.324 61.0474C213.324 61.3688 213.261 61.5294 213.137 61.5294C213.023 61.5294 212.919 61.2807 212.826 60.7831L212.297 57.8287C212.266 59.5184 212.235 60.3995 212.204 60.4721C212.173 60.6068 212.131 60.6742 212.08 60.6742C211.955 60.6742 211.826 60.4669 211.691 60.0522C211.598 59.7931 211.525 59.5132 211.473 59.2126C211.39 58.5906 211.281 58.2796 211.147 58.2796L211.053 58.2951C210.784 58.2951 210.628 57.2792 210.587 55.2474C210.556 54.0346 210.499 53.4281 210.416 53.4281C210.343 53.4281 210.25 53.8635 210.136 54.7343C210.012 55.885 209.856 56.4603 209.67 56.4603C209.545 56.4603 209.483 56.1752 209.483 55.6051C209.483 54.7861 209.576 53.5785 209.763 51.982C209.867 51.0594 209.986 50.3027 210.12 49.7118C210.307 48.9032 210.4 48.4057 210.4 48.2191L210.385 48.1569C210.302 48.1569 210.032 48.5249 209.576 49.2609C208.571 50.8366 207.311 52.6662 205.798 54.7499C204.285 56.8231 203.124 58.3107 202.315 59.2126C201.268 60.3114 200.465 61.0111 199.905 61.3118C199.324 61.5916 198.765 61.7316 198.226 61.7316ZM206.824 51.9198C206.876 51.9198 207.016 51.7799 207.244 51.5C207.389 51.3134 207.534 51.0957 207.679 50.8469C207.835 50.5878 207.949 50.3804 208.021 50.2249C208.104 50.0591 208.146 49.9502 208.146 49.8984C208.146 49.8777 208.135 49.8673 208.115 49.8673C208.063 49.8673 207.799 50.2042 207.322 50.878C206.969 51.4067 206.793 51.7436 206.793 51.8887C206.793 51.9095 206.803 51.9198 206.824 51.9198ZM208.301 49.6496C208.353 49.6496 208.483 49.52 208.69 49.2609C208.825 49.1054 208.892 49.0121 208.892 48.981H208.877C208.856 48.981 208.768 49.0432 208.612 49.1676C208.343 49.3853 208.208 49.5304 208.208 49.603C208.208 49.6341 208.239 49.6496 208.301 49.6496ZM210.058 47.3949C210.089 47.3949 210.188 47.3068 210.354 47.1306C210.551 46.9544 210.649 46.8041 210.649 46.6797C210.649 46.6278 210.628 46.6019 210.587 46.6019C210.473 46.6019 210.354 46.7367 210.229 47.0062C210.105 47.2135 210.043 47.3379 210.043 47.3794C210.043 47.3898 210.048 47.3949 210.058 47.3949Z" fill="black"/>
<path d="M230.396 70.0195C229.753 70.0195 229.168 69.8536 228.639 69.5219C228.1 69.1383 227.685 68.7237 227.395 68.2779C227.063 67.77 226.82 67.034 226.664 66.0699C226.509 65.1058 226.431 64.1314 226.431 63.1466L226.462 61.3895C226.462 60.7468 226.442 60.4151 226.4 60.3943C226.327 60.3943 226.146 60.6379 225.856 61.1252C225.514 61.6746 224.985 62.3225 224.27 63.0688C223.565 63.8152 222.959 64.3543 222.451 64.686C221.632 65.1732 220.86 65.4168 220.134 65.4168C218.672 65.4168 217.599 64.6238 216.915 63.0378C216.656 62.3328 216.527 61.4776 216.527 60.4721C216.527 59.3525 216.687 58.0515 217.009 56.5691C217.62 53.7495 218.605 50.8832 219.963 47.9703C221.673 44.2902 223.586 41.5742 225.7 39.8223C226.758 38.9515 227.908 38.5162 229.152 38.5162C230.085 38.5162 231.023 38.7805 231.967 39.3092C232.837 39.7964 233.273 40.1437 233.273 40.351C233.273 40.4028 233.242 40.4287 233.179 40.4287C233.086 40.4287 232.941 40.3614 232.744 40.2266L232.666 40.18L232.651 40.1955C232.651 40.2266 232.806 40.4132 233.117 40.7553C233.553 41.2321 233.77 41.5276 233.77 41.6416C233.77 41.6727 233.755 41.6883 233.724 41.6883C233.62 41.6883 233.345 41.4654 232.899 41.0196C232.381 40.5013 232.034 40.2422 231.858 40.2422C231.671 40.2422 231.578 40.2888 231.578 40.3821C231.578 40.4961 231.738 40.6879 232.06 40.9574L232.573 41.4084L231.904 40.9574C230.992 40.3873 230.152 40.1022 229.385 40.1022C229.168 40.1022 228.971 40.1385 228.795 40.2111C228.629 40.2836 228.546 40.3355 228.546 40.3666C228.546 40.4184 228.789 40.4495 229.277 40.4598C230.386 40.5013 231.225 40.8538 231.795 41.5172C231.889 41.6209 231.935 41.6883 231.935 41.7194L231.92 41.7349C231.878 41.7349 231.718 41.6312 231.438 41.4239C230.816 40.9782 230.215 40.7553 229.634 40.7553C229.365 40.7553 229.085 40.8071 228.795 40.9108C228.515 41.0041 228.224 41.1907 227.924 41.4706C227.623 41.7401 227.39 42.0096 227.224 42.2791C227.058 42.5383 226.975 42.7456 226.975 42.9011L226.991 43.0255C227.022 43.1084 227.038 43.1758 227.038 43.2277C227.038 43.3313 227.001 43.3832 226.929 43.3832C226.794 43.3832 226.581 43.8807 226.291 44.8759C226.177 45.2698 226.094 45.6327 226.042 45.9644C226.001 46.2961 225.612 47.198 224.876 48.67C224.047 50.4012 223.29 52.293 222.606 54.3456C222.306 55.2371 222.155 55.8176 222.155 56.0871C222.155 56.5121 222.238 56.7246 222.404 56.7246C222.798 56.7246 223.404 55.8953 224.223 54.2367C224.721 53.2623 225.566 51.3601 226.758 48.53C227.255 47.3587 227.717 46.3376 228.142 45.4668C228.577 44.5857 228.872 44.057 229.028 43.8807C229.328 43.549 229.779 43.3832 230.381 43.3832H230.645C231.588 43.3832 232.189 43.7563 232.449 44.5027C232.583 44.8966 232.651 45.4875 232.651 46.2754C232.651 47.0217 232.588 47.9495 232.464 49.0587C231.728 55.9835 231.36 60.441 231.36 62.4313C231.36 63.0948 231.402 63.4835 231.485 63.5975H231.516C231.681 63.5975 232.018 63.2917 232.526 62.6801C233.065 62.0374 233.635 61.2651 234.237 60.3632C234.838 59.4614 235.304 58.6528 235.636 57.9375C235.937 57.2844 236.336 56.5795 236.833 55.8228C237.331 55.066 237.854 54.0709 238.404 52.8373C238.943 51.6659 239.254 51.0802 239.337 51.0802L239.352 51.1268C239.352 51.2616 239.259 51.5052 239.072 51.8576C238.844 52.3345 238.73 52.6196 238.73 52.7129C238.73 52.744 238.741 52.7595 238.761 52.7595C238.844 52.7595 239.077 52.3708 239.461 51.5933C239.648 51.2097 239.813 50.821 239.959 50.4271C240.363 49.4319 240.689 48.7581 240.938 48.4057C241.042 48.2605 241.109 48.188 241.14 48.188C241.171 48.188 241.187 48.2139 241.187 48.2657C241.187 48.4523 240.923 49.3283 240.394 50.8936C239.876 52.4278 239.534 53.3763 239.368 53.7391C239.285 53.8739 239.243 53.9879 239.243 54.0812C239.243 54.1123 239.259 54.1279 239.29 54.1279C239.373 54.1279 239.72 53.4748 240.332 52.1686C240.84 51.0698 241.161 50.5204 241.296 50.5204C241.379 50.5204 241.42 50.6396 241.42 50.878C241.42 51.2719 241.296 51.811 241.047 52.4952C240.819 53.1275 240.705 53.5318 240.705 53.708C240.705 53.791 240.736 53.8324 240.798 53.8324C240.819 53.8324 240.85 53.8273 240.892 53.8169C240.933 53.7962 240.969 53.7858 241 53.7858C241.073 53.7858 241.109 53.8376 241.109 53.9413C241.109 54.159 240.933 54.8069 240.581 55.885C240.031 57.5436 239.601 58.6683 239.29 59.2592C239.155 59.5287 239.088 59.7153 239.088 59.819C239.088 59.8501 239.098 59.8656 239.119 59.8656L239.166 59.8501C239.238 59.7983 239.357 59.6376 239.523 59.3681C239.699 59.0985 239.881 58.7824 240.067 58.4195C240.254 58.0567 240.451 57.6939 240.658 57.3311C240.876 56.9579 241.057 56.6676 241.202 56.4603C241.348 56.2426 241.498 56.0249 241.653 55.8072L241.513 56.4759C241.42 56.9112 241.151 57.6058 240.705 58.5595C240.259 59.5132 239.751 60.5135 239.181 61.5605C238.611 62.5972 238.088 63.468 237.611 64.1729C235.683 66.9821 234.024 68.7392 232.635 69.4442C231.827 69.8277 231.08 70.0195 230.396 70.0195Z" fill="black"/>
<path d="M239.243 66.5986C238.124 66.5986 237.315 66.215 236.818 65.4479C236.559 65.0436 236.429 64.5927 236.429 64.0951C236.429 63.6701 236.559 63.1673 236.818 62.5868C237.067 62.0063 237.341 61.5813 237.642 61.3118C237.808 61.177 237.891 61.0422 237.891 60.9075C237.891 60.8764 237.88 60.8453 237.86 60.8142C237.839 60.7727 237.828 60.7364 237.828 60.7053C237.828 60.6742 237.849 60.6587 237.891 60.6587L237.953 60.6742C238.015 60.6742 238.212 60.5498 238.544 60.301C238.875 60.0522 239.259 59.7309 239.694 59.337C240.627 58.4973 241.363 57.8649 241.902 57.4399L243.255 56.367C243.929 55.8591 244.266 55.5584 244.266 55.4651C244.266 55.4029 243.949 55.2371 243.317 54.9675C242.592 54.6462 241.814 54.1486 240.985 53.4748C240.156 52.7906 239.534 52.1375 239.119 51.5156C238.476 50.4271 238.155 49.2972 238.155 48.1258C238.155 47.058 238.419 45.9644 238.948 44.8448C239.414 43.9637 240.176 42.9581 241.234 41.8282C242.301 40.6879 243.379 39.6824 244.468 38.8116C245.556 37.9408 246.375 37.4692 246.924 37.3966L247.453 37.3655C246.831 38.0289 246.52 38.4229 246.52 38.5473C246.52 38.5991 246.562 38.625 246.645 38.625C246.707 38.625 246.79 38.6095 246.893 38.5784H246.94C246.961 38.5784 246.971 38.5835 246.971 38.5939C246.971 38.6976 246.743 38.993 246.287 39.4802C245.852 39.926 245.634 40.1955 245.634 40.2888C245.634 40.3095 245.644 40.3199 245.665 40.3199C245.738 40.3199 245.903 40.2162 246.163 40.0089C246.308 39.8949 246.422 39.786 246.505 39.6824C246.691 39.475 246.945 39.2781 247.267 39.0915L247.344 39.0604C247.355 39.0604 247.36 39.0708 247.36 39.0915C247.36 39.1848 247.101 39.5061 246.582 40.0556C246.157 40.4909 245.815 40.9212 245.556 41.3462C245.193 41.9474 244.81 42.9011 244.406 44.2073C244.281 44.5908 244.209 44.8396 244.188 44.9537C244.136 45.2024 243.913 45.7 243.519 46.4464C243.125 47.255 242.928 47.8251 242.928 48.1569C242.928 48.53 243.089 48.9084 243.41 49.292C243.732 49.6652 244.146 49.9658 244.654 50.1938C245.121 50.3908 245.634 50.65 246.194 50.9713C246.65 51.2512 247.303 51.5259 248.153 51.7954L249.412 52.1997C250.2 51.5363 250.781 51.0802 251.154 50.8314C251.537 50.5722 251.89 50.3545 252.211 50.1783C252.947 49.7947 253.507 49.4734 253.89 49.2142C254.606 48.727 255.228 48.3486 255.756 48.0791C255.953 47.9651 256.072 47.9081 256.114 47.9081L256.129 47.9236C256.129 48.0065 255.891 48.1983 255.414 48.499C255.062 48.727 254.885 48.8773 254.885 48.9499C254.885 48.9706 254.901 48.981 254.932 48.981C255.139 48.9499 255.658 48.67 256.487 48.1413C257.503 47.509 258.161 47.1928 258.462 47.1928C258.524 47.1928 258.555 47.2032 258.555 47.2239C258.555 47.2965 258.306 47.5193 257.809 47.8925L256.534 48.8566C255.373 49.7066 254.792 50.1679 254.792 50.2405C254.792 50.2716 254.803 50.2871 254.823 50.2871C254.885 50.2871 255.186 50.1161 255.725 49.774C256.803 49.0898 257.394 48.7477 257.498 48.7477C257.612 48.7477 257.669 48.7892 257.669 48.8721C257.669 48.9447 257.632 49.0432 257.56 49.1676C257.394 49.4475 257.109 49.7533 256.705 50.085C256.311 50.4064 256.083 50.6292 256.02 50.7536C255.958 50.8677 255.927 50.9402 255.927 50.9713C255.927 51.0232 255.969 51.0491 256.052 51.0491L256.207 51.0335C256.217 51.0335 256.223 51.0387 256.223 51.0491C256.223 51.1527 255.824 51.614 255.025 52.433C254.144 53.3141 253.704 53.8065 253.704 53.9102C253.807 53.9102 254.206 53.708 254.901 53.3038L255.974 52.7129C255.601 53.2727 255.342 53.6303 255.196 53.7858C255.051 53.9413 254.922 54.0553 254.808 54.1279C254.694 54.1901 254.637 54.2523 254.637 54.3145C254.637 54.4078 254.787 54.5684 255.088 54.7965C255.906 55.4599 256.316 56.2011 256.316 57.0201C256.316 57.6006 256.109 58.2278 255.694 58.9016C255.29 59.5754 254.637 60.2233 253.735 60.8453C252.843 61.4672 251.444 62.2447 249.537 63.1777C244.851 65.4583 241.42 66.5986 239.243 66.5986ZM248.417 59.2748C248.479 59.2748 248.562 59.254 248.666 59.2126C248.77 59.1711 248.878 59.1141 248.992 59.0415C249.106 58.9586 249.163 58.9016 249.163 58.8705C249.163 58.8497 249.138 58.8394 249.086 58.8394C249.024 58.8394 248.935 58.8601 248.821 58.9016C248.718 58.943 248.609 59.0052 248.495 59.0882C248.391 59.1607 248.339 59.2126 248.339 59.2437C248.339 59.2644 248.365 59.2748 248.417 59.2748ZM249.925 58.5439C249.967 58.5439 250.045 58.5232 250.159 58.4817C250.273 58.4403 250.35 58.3988 250.392 58.3573C250.433 58.3055 250.454 58.2692 250.454 58.2485C250.454 58.1967 250.423 58.1707 250.361 58.1707C250.247 58.1707 250.138 58.2226 250.034 58.3262C249.941 58.4299 249.894 58.4973 249.894 58.5284C249.894 58.5388 249.905 58.5439 249.925 58.5439Z" fill="black"/>
<path d="M257.7 70.0661C257.378 70.0661 257.057 70.0091 256.736 69.8951C255.969 69.6567 255.45 69.2679 255.181 68.7289C254.911 68.1795 254.777 67.4849 254.777 66.6452C254.777 65.2976 255.103 63.0844 255.756 60.0056C256.482 56.6158 257.606 51.9717 259.13 46.0732C260.664 40.1748 262.085 35.0227 263.391 30.617C264.655 26.429 266.044 22.0855 267.558 17.5865C269.081 13.0771 270.429 9.25715 271.6 6.12651C272.782 2.98551 273.492 1.38391 273.731 1.32171H273.746C273.798 1.32171 273.87 1.26469 273.964 1.15066C274.057 1.02627 274.145 0.855224 274.228 0.63753C274.425 0.21251 274.565 0 274.648 0C274.679 0 274.7 0.0362822 274.71 0.108847C274.71 0.222876 274.648 0.44057 274.524 0.761926C274.451 0.948521 274.373 1.1714 274.29 1.43056C274.207 1.68971 274.14 1.93332 274.088 2.16138C274.036 2.37908 274.01 2.53975 274.01 2.64342C274.01 2.74708 274.042 2.79891 274.104 2.79891C274.135 2.79891 274.176 2.78855 274.228 2.76781C274.332 2.72635 274.404 2.70562 274.446 2.70562C274.498 2.71598 274.524 2.74708 274.524 2.79891C274.524 2.96477 274.337 3.55566 273.964 4.57156C273.642 5.546 273.482 6.12133 273.482 6.29755L273.497 6.35975C273.591 6.35975 273.907 5.59264 274.446 4.05842C274.985 2.60714 275.291 1.88149 275.363 1.88149C275.374 1.88149 275.379 1.90222 275.379 1.94369C275.379 2.04735 275.342 2.22876 275.27 2.48792C275.187 2.81965 275.063 3.19283 274.897 3.60749C273.985 6.05395 273.451 8.66627 273.295 11.4444C273.254 12.3463 273.15 13.1393 272.984 13.8235C272.839 14.404 272.73 15.1245 272.658 15.9849C272.616 16.7002 272.445 17.5917 272.145 18.6594C271.875 19.6339 271.082 22.1632 269.766 26.2476C268.439 30.4045 267.599 33.1671 267.247 34.5355C266.842 36.0904 266.511 37.2826 266.252 38.1119C265.785 39.5424 265.376 40.8952 265.023 42.1703C264.681 43.4454 264.168 45.4512 263.484 48.188C262.541 52.0028 261.965 54.2678 261.758 54.9831C261.654 55.2941 261.603 55.5429 261.603 55.7295C261.603 55.7709 261.608 55.802 261.618 55.8228C261.711 55.802 262.644 54.2471 264.417 51.1579C265.972 48.4419 267.444 46.0058 268.833 43.8496C270.232 41.6831 271.305 40.1696 272.051 39.3092C272.57 38.739 273.155 38.2674 273.808 37.8942C274.461 37.521 275.021 37.3344 275.488 37.3344C275.84 37.3344 276.203 37.5417 276.576 37.9564C276.96 38.371 277.26 38.8842 277.478 39.4958C277.581 39.9312 277.633 41.0041 277.633 42.7145C277.633 45.9281 277.54 48.3901 277.353 50.1006C277.25 50.9091 277.146 53.0187 277.042 56.4292C276.97 58.5543 276.934 60.0626 276.934 60.9541C276.934 61.431 276.939 61.6953 276.949 61.7471H276.965C277.068 61.7471 277.224 61.5968 277.431 61.2962C277.587 61.0681 278.001 60.5446 278.675 59.7257C279.266 59.0415 280.209 57.7146 281.505 55.745C282.707 53.9413 283.386 53.0394 283.542 53.0394C283.552 53.0394 283.557 53.0446 283.557 53.055C283.568 53.0653 283.578 53.0705 283.589 53.0705C283.713 53.0705 284.055 52.5626 284.615 51.5467C285.185 50.5308 285.646 49.7533 285.999 49.2142C286.351 48.6752 286.558 48.4057 286.621 48.4057C286.631 48.4057 286.636 48.416 286.636 48.4368C286.595 48.7685 285.952 50.1368 284.708 52.5418C284.2 53.5266 283.734 54.3819 283.309 55.1075C282.542 56.4655 282.158 57.1704 282.158 57.2222C282.158 57.2326 282.163 57.2378 282.174 57.2378C282.298 57.2378 283.106 56.0353 284.599 53.6303C285.377 52.3241 285.786 51.6711 285.828 51.6711C285.859 51.6711 285.874 51.7903 285.874 52.0287C285.874 52.5159 285.496 53.4592 284.739 54.8587C284.128 56.0094 283.822 56.7039 283.822 56.9423C283.822 56.9942 283.848 57.0201 283.899 57.0201C284.003 57.0201 284.102 56.9423 284.195 56.7868C284.299 56.6313 284.361 56.5536 284.381 56.5536C284.392 56.5536 284.397 56.564 284.397 56.5847C284.397 56.6987 284.236 57.0771 283.915 57.7198C283.376 58.829 282.624 60.13 281.66 61.6227C280.707 63.1155 279.846 64.3232 279.079 65.2458C278.374 66.0647 278.022 66.5053 278.022 66.5675H278.038C278.069 66.5675 278.281 66.3757 278.675 65.9922C279.37 65.3183 280.334 64.2091 281.567 62.6646C283.039 60.7675 283.817 59.819 283.899 59.819C283.91 59.819 283.915 59.8294 283.915 59.8501C283.915 59.933 283.775 60.2285 283.495 60.7364C282.459 62.6438 281.21 64.3957 279.748 65.9922C278.297 67.5886 277.074 68.5475 276.078 68.8688C275.726 68.9414 275.389 68.9777 275.068 68.9777C274.104 68.9777 273.383 68.6356 272.906 67.9514C272.492 67.3605 272.233 66.8474 272.129 66.412C272.036 65.9766 271.989 64.7948 271.989 62.8667C271.989 58.9068 272.088 55.2993 272.285 52.0442C272.43 49.8258 272.502 48.3746 272.502 47.6904C272.502 47.452 272.492 47.3172 272.471 47.2861C272.388 47.2861 271.948 47.9444 271.149 49.2609C270.351 50.5774 269.398 52.2049 268.288 54.1434C267.19 56.0819 266.138 57.979 265.132 59.8345C263.277 63.2969 261.939 65.7226 261.12 67.1117C260.312 68.4904 259.783 69.2524 259.535 69.3975C258.944 69.8433 258.332 70.0661 257.7 70.0661ZM257.653 69.382C258.265 69.382 258.866 69.0606 259.457 68.4179C259.716 68.1276 259.846 67.9307 259.846 67.827C259.846 67.8166 259.84 67.8115 259.83 67.8115C259.778 67.8115 259.597 67.9721 259.286 68.2935C258.757 68.874 258.187 69.1643 257.575 69.1643C257.316 69.1643 257.047 69.1072 256.767 68.9932C256.124 68.6719 255.777 67.7337 255.725 66.1787L255.694 64.7637C255.621 65.0747 255.554 65.3857 255.492 65.6967C255.419 66.0077 255.383 66.3031 255.383 66.583C255.383 67.1117 255.492 67.5886 255.71 68.0136C256.041 68.6667 256.404 69.0606 256.798 69.1954C257.181 69.3198 257.467 69.382 257.653 69.382ZM276.047 68.0136C276.12 68.0136 276.229 67.9721 276.374 67.8892C276.519 67.7959 276.674 67.6767 276.84 67.5316C277.006 67.3864 277.177 67.2361 277.353 67.0806C276.379 67.6611 275.892 67.9618 275.892 67.9825C275.913 68.0032 275.964 68.0136 276.047 68.0136ZM260.359 66.7541C260.379 66.7541 260.478 66.6504 260.654 66.4431C260.955 66.0699 261.105 65.8107 261.105 65.6656C261.105 65.6242 261.095 65.6034 261.074 65.6034C260.97 65.6034 260.753 65.9196 260.421 66.5519C260.369 66.6556 260.343 66.7178 260.343 66.7385C260.343 66.7489 260.348 66.7541 260.359 66.7541ZM261.431 65.0903C261.494 65.0592 261.566 64.9452 261.649 64.7482C261.67 64.6756 261.68 64.6186 261.68 64.5772C261.68 64.5357 261.665 64.515 261.634 64.515C261.613 64.515 261.577 64.5305 261.525 64.5616C261.483 64.5823 261.442 64.629 261.4 64.7015C261.359 64.7637 261.338 64.8259 261.338 64.8881C261.338 65.0229 261.364 65.0903 261.416 65.0903H261.431ZM255.834 63.9396C255.896 63.9396 255.932 63.8722 255.943 63.7375C255.943 63.6545 255.927 63.5768 255.896 63.5042C255.865 63.4213 255.839 63.3798 255.818 63.3798C255.787 63.3798 255.767 63.4628 255.756 63.6286C255.756 63.836 255.782 63.9396 255.834 63.9396ZM265.676 57.4399C265.718 57.4399 265.842 57.2741 266.049 56.9423C266.506 56.2374 266.734 55.8331 266.734 55.7295C266.734 55.7191 266.728 55.7139 266.718 55.7139C266.656 55.7139 266.5 55.9109 266.252 56.3048C265.868 56.9061 265.676 57.2792 265.676 57.4244V57.4399ZM282.22 55.2474C282.262 55.2474 282.495 54.9624 282.92 54.3922C283.324 53.7702 283.526 53.3867 283.526 53.2416C283.526 53.2105 283.516 53.1949 283.495 53.1949C283.464 53.1949 283.407 53.2467 283.324 53.3504C283.241 53.4437 283.132 53.594 282.998 53.8013C282.873 53.9983 282.744 54.2108 282.609 54.4389C282.485 54.6566 282.386 54.838 282.313 54.9831C282.251 55.1179 282.22 55.2008 282.22 55.2319V55.2474ZM267.2 54.7965C267.293 54.7965 267.698 54.1797 268.413 52.9461C269.221 51.5467 269.683 50.764 269.797 50.5981C269.952 50.3597 270.03 50.2042 270.03 50.1316C270.03 50.1109 270.02 50.1006 269.999 50.1006C269.947 50.1006 269.46 50.8417 268.537 52.3241C267.615 53.7962 267.153 54.5892 267.153 54.7032C267.153 54.7654 267.169 54.7965 267.2 54.7965ZM273.637 10.2471C273.544 10.2471 273.497 10.2109 273.497 10.1383C273.497 10.1072 273.513 10.0657 273.544 10.0139C273.585 9.95169 273.627 9.89986 273.668 9.85839C273.71 9.81693 273.746 9.7962 273.777 9.7962C273.839 9.7962 273.87 9.86876 273.87 10.0139C273.87 10.0761 273.845 10.1331 273.793 10.1849C273.751 10.2264 273.699 10.2471 273.637 10.2471Z" fill="black"/>
<path d="M232.709 152C232.668 152 232.647 151.927 232.647 151.782C232.647 151.44 232.88 150.051 233.347 147.615C233.658 146.102 233.813 145.189 233.813 144.878V144.863C233.762 144.863 233.533 145.568 233.129 146.978L232.647 148.735C232.461 149.367 232.336 149.683 232.274 149.683C232.243 149.683 232.191 149.595 232.119 149.419V149.388C232.087 149.294 232.072 149.154 232.072 148.968C232.072 148.45 232.134 147.843 232.258 147.149C232.393 146.464 232.466 145.988 232.476 145.718C232.476 145.448 232.424 145.288 232.321 145.236C232.227 145.195 232.181 145.07 232.181 144.863C232.181 144.49 232.326 143.671 232.616 142.406C233.051 140.54 233.368 139.291 233.565 138.659C233.72 138.151 233.798 137.845 233.798 137.741C233.798 137.71 233.787 137.694 233.767 137.694C233.642 137.694 233.321 138.425 232.803 139.887C232.077 141.898 231.637 142.904 231.481 142.904C231.45 142.904 231.434 142.867 231.434 142.795C231.476 142.079 231.818 140.69 232.461 138.627C233.114 136.565 233.86 134.496 234.7 132.423C235.353 130.827 235.679 129.92 235.679 129.702C235.679 129.64 235.664 129.609 235.633 129.609C235.591 129.609 235.524 129.655 235.43 129.749C235.379 129.8 235.322 129.826 235.259 129.826C235.094 129.826 234.891 129.676 234.653 129.375C234.321 128.961 233.979 128.375 233.627 127.618C233.285 126.851 233 126.022 232.772 125.13C232.616 124.56 232.502 124.275 232.43 124.275H232.414C232.404 124.296 232.398 124.348 232.398 124.431C232.398 124.773 232.487 125.369 232.663 126.219C232.87 127.37 233.067 128.183 233.254 128.66C233.337 128.847 233.378 128.971 233.378 129.033C233.378 129.064 233.368 129.08 233.347 129.08C233.212 129.08 233.02 128.847 232.772 128.38C232.626 128.111 232.492 127.81 232.367 127.478C231.953 126.411 231.678 125.281 231.543 124.089C231.419 122.896 231.357 121.031 231.357 118.491C231.367 115.547 231.543 112.224 231.885 108.524C232.238 104.823 232.834 99.9454 233.673 93.8914C233.891 92.3261 234 91.2636 234 90.7038C234 90.3099 233.953 90.0093 233.86 89.8019C233.663 89.3043 233.513 89.0555 233.409 89.0555C233.357 89.0555 233.311 89.0193 233.269 88.9467C233.238 88.8638 233.223 88.7653 233.223 88.6513C233.223 88.3817 233.16 88.1796 233.036 88.0448C232.912 87.9101 232.746 87.5369 232.538 86.9253C232.341 86.3137 232.17 85.9664 232.025 85.8834C231.911 85.7591 231.849 85.4014 231.839 84.8105C231.839 83.1726 231.865 81.8613 231.916 80.8765C231.979 79.6222 232.082 78.513 232.227 77.5489C232.725 74.1073 233.357 71.8578 234.124 70.8004C235.047 69.5254 236.052 68.8878 237.141 68.8878C238.219 68.9189 239.105 69.6083 239.8 70.9559C240.256 71.8267 240.53 72.6612 240.624 73.4594C240.717 74.2472 240.764 74.9521 240.764 75.5741C240.764 76.476 240.707 77.5489 240.593 78.7929C240.385 80.8869 240.007 83.8205 239.458 87.5939C238.732 92.6008 238.053 97.556 237.421 102.459C237.193 104.294 237.079 105.331 237.079 105.569C237.079 105.859 237.042 106.212 236.97 106.627C236.856 107.363 236.768 108.223 236.705 109.208C236.394 112.867 236.239 116.107 236.239 118.926C236.239 121.373 236.332 123.187 236.519 124.369C236.757 125.851 236.923 126.618 237.016 126.67C237.089 126.67 237.276 126.312 237.576 125.597C238.157 124.229 239.287 121.637 240.966 117.822C249.455 98.5822 257.453 83.2193 264.958 71.7334C266.751 68.9967 268.316 67.0219 269.653 65.809C271.001 64.5962 272.302 63.9897 273.556 63.9897C274.873 64.0001 275.821 64.5806 276.402 65.7313C276.982 66.8716 277.272 68.2658 277.272 69.9141C277.272 71.2203 277.049 73.138 276.604 75.6674C275.847 79.8554 275.121 83.1519 274.427 85.5569C274.126 86.635 273.919 87.1741 273.805 87.1741C273.784 87.1741 273.763 87.1585 273.743 87.1274C273.712 87.0341 273.68 86.9875 273.649 86.9875C273.587 86.9875 273.52 87.2103 273.447 87.6561C273.406 87.9256 273.349 88.1537 273.276 88.3403C273.214 88.5165 273.162 88.6046 273.121 88.6046C273.079 88.6046 273.059 88.4958 273.059 88.2781C273.059 88.0707 273.09 87.8012 273.152 87.4695C273.224 87.1274 273.261 86.8423 273.261 86.6143C273.261 86.2929 273.209 86.1322 273.105 86.1322C273.033 86.1322 272.95 86.21 272.856 86.3655C272.763 86.5106 272.706 86.5832 272.685 86.5832H272.67C272.659 86.5728 272.654 86.5469 272.654 86.5054C272.654 86.3603 272.763 85.7539 272.981 84.6861C273.157 83.7843 273.245 83.2245 273.245 83.0068L273.214 82.9135C273.121 82.9653 272.924 83.6288 272.623 84.9038C272.291 86.2722 272.089 86.9564 272.017 86.9564C272.006 86.9356 272.001 86.889 272.001 86.8164C272.001 86.578 272.058 86.1996 272.172 85.6813C272.473 84.2093 272.623 82.6388 272.623 80.9698C272.623 80.0265 272.494 79.5548 272.234 79.5548C272.203 79.5548 272.167 79.5652 272.126 79.5859C272.084 79.6066 272.053 79.617 272.032 79.617C272.012 79.617 272.001 79.6118 272.001 79.6014C272.001 79.56 272.027 79.4926 272.079 79.3993C272.141 79.2956 272.188 79.0572 272.219 78.684C272.26 78.3108 272.286 77.8962 272.297 77.4401C272.297 76.3412 272.25 75.7348 272.157 75.6208C272.126 75.5897 272.11 75.3875 272.11 75.0143C272.11 74.6515 272.136 74.2213 272.188 73.7237C272.323 72.5523 272.39 71.7282 272.39 71.2514C272.39 70.733 272.281 70.4739 272.063 70.4739C271.97 70.4739 271.83 70.562 271.644 70.7382C271.467 70.9041 271.291 71.1166 271.115 71.3757C270.711 71.9977 270.234 72.6301 269.684 73.2728C268.016 75.4083 265.31 79.9021 261.568 86.7542C257.836 93.596 254.322 100.484 251.026 107.42C248.849 112.105 247.139 115.847 245.895 118.646C245.211 120.201 244.869 121.015 244.869 121.088C244.869 121.16 244.542 121.927 243.889 123.389C243.319 124.581 242.744 125.908 242.163 127.37L240.733 130.993C240.411 131.853 239.914 132.998 239.24 134.429C238.618 135.746 238.074 137.14 237.607 138.612C237.193 139.845 236.685 141.24 236.083 142.795C235.617 143.894 235.254 144.878 234.995 145.749C234.84 146.309 234.705 146.589 234.591 146.589C234.57 146.589 234.555 146.578 234.544 146.558C234.534 146.537 234.518 146.527 234.498 146.527C234.404 146.527 234.259 146.817 234.062 147.397C233.834 148.082 233.585 149.02 233.316 150.212C233.057 151.404 232.855 152 232.709 152ZM246.905 105.989C246.978 105.989 247.191 105.668 247.543 105.025C248.072 104.05 248.336 103.475 248.336 103.299L248.32 103.268C248.258 103.268 248.046 103.605 247.683 104.279C247.175 105.243 246.911 105.802 246.89 105.958C246.89 105.979 246.895 105.989 246.905 105.989ZM248.787 102.242C248.828 102.242 248.984 102.019 249.253 101.573C249.44 101.189 249.533 100.946 249.533 100.842C249.533 100.811 249.523 100.795 249.502 100.795C249.419 100.795 249.269 101.023 249.051 101.48C248.875 101.905 248.787 102.153 248.787 102.226V102.242ZM233.487 98.7896C233.767 97.7425 233.938 97.0376 234 96.6748C234.062 96.312 234.093 95.9544 234.093 95.6019C234.093 95.4671 234.083 95.3998 234.062 95.3998C234 95.3998 233.891 95.8766 233.736 96.8303C233.673 97.1724 233.59 97.8255 233.487 98.7896ZM252.332 95.2909C252.363 95.2909 252.43 95.2443 252.534 95.151C252.638 95.0473 252.69 94.9436 252.69 94.84C252.69 94.7674 252.664 94.7311 252.612 94.7311C252.591 94.7311 252.56 94.757 252.519 94.8089C252.477 94.8503 252.43 94.9281 252.379 95.0421C252.337 95.1458 252.316 95.2183 252.316 95.2598C252.316 95.2805 252.322 95.2909 252.332 95.2909ZM234.218 94.7622C234.28 94.7622 234.311 94.6119 234.311 94.3113C234.311 94.0625 234.285 93.9381 234.233 93.9381C234.202 93.9381 234.181 94.0625 234.171 94.3113C234.171 94.6119 234.187 94.7622 234.218 94.7622ZM253.032 94.2024C253.115 94.2024 253.229 94.0521 253.374 93.7515C253.477 93.5753 253.529 93.4405 253.529 93.3472C253.529 93.3161 253.519 93.3006 253.498 93.3006C253.426 93.3006 253.312 93.4509 253.156 93.7515C253.052 93.9277 253.001 94.0625 253.001 94.1558C253.001 94.1869 253.011 94.2024 253.032 94.2024ZM253.623 93.0362C253.674 93.0362 253.934 92.6371 254.4 91.8389C254.887 90.9992 255.141 90.5017 255.162 90.3462C255.162 90.2321 255.126 90.1751 255.053 90.1751C254.991 90.1751 254.732 90.6209 254.276 91.5124C253.83 92.3935 253.607 92.8963 253.607 93.0207L253.623 93.0362ZM255.271 89.9419C255.354 89.9419 255.468 89.7967 255.613 89.5065C255.716 89.3199 255.768 89.1851 255.768 89.1022C255.768 89.0711 255.758 89.0555 255.737 89.0555C255.644 89.0555 255.53 89.2059 255.395 89.5065C255.291 89.6827 255.24 89.8123 255.24 89.8952C255.24 89.9263 255.25 89.9419 255.271 89.9419Z" fill="black"/>
<path d="M266.544 131.941C265.901 131.941 265.315 131.775 264.787 131.444C264.248 131.06 263.833 130.645 263.543 130.2C263.211 129.692 262.967 128.956 262.812 127.992C262.656 127.027 262.579 126.053 262.579 125.068L262.61 123.311C262.61 122.668 262.589 122.337 262.548 122.316C262.475 122.316 262.294 122.56 262.003 123.047C261.661 123.596 261.133 124.244 260.417 124.99C259.712 125.737 259.106 126.276 258.598 126.608C257.779 127.095 257.007 127.338 256.281 127.338C254.82 127.338 253.747 126.545 253.063 124.959C252.804 124.254 252.674 123.399 252.674 122.394C252.674 121.274 252.835 119.973 253.156 118.491C253.768 115.671 254.752 112.805 256.11 109.892C257.821 106.212 259.733 103.496 261.848 101.744C262.905 100.873 264.056 100.438 265.3 100.438C266.233 100.438 267.171 100.702 268.114 101.231C268.985 101.718 269.42 102.065 269.42 102.273C269.42 102.324 269.389 102.35 269.327 102.35C269.234 102.35 269.088 102.283 268.891 102.148L268.814 102.102L268.798 102.117C268.798 102.148 268.954 102.335 269.265 102.677C269.7 103.154 269.918 103.449 269.918 103.563C269.918 103.594 269.902 103.61 269.871 103.61C269.767 103.61 269.493 103.387 269.047 102.941C268.529 102.423 268.181 102.164 268.005 102.164C267.819 102.164 267.725 102.21 267.725 102.304C267.725 102.418 267.886 102.61 268.207 102.879L268.72 103.33L268.052 102.879C267.14 102.309 266.3 102.024 265.533 102.024C265.315 102.024 265.118 102.06 264.942 102.133C264.776 102.205 264.693 102.257 264.693 102.288C264.693 102.34 264.937 102.371 265.424 102.381C266.533 102.423 267.373 102.775 267.943 103.439C268.036 103.543 268.083 103.61 268.083 103.641L268.067 103.657C268.026 103.657 267.865 103.553 267.585 103.346C266.963 102.9 266.362 102.677 265.782 102.677C265.512 102.677 265.232 102.729 264.942 102.832C264.662 102.926 264.372 103.112 264.071 103.392C263.771 103.662 263.537 103.931 263.372 104.201C263.206 104.46 263.123 104.667 263.123 104.823L263.138 104.947C263.169 105.03 263.185 105.097 263.185 105.149C263.185 105.253 263.149 105.305 263.076 105.305C262.941 105.305 262.729 105.802 262.439 106.798C262.325 107.191 262.242 107.554 262.19 107.886C262.148 108.218 261.76 109.12 261.024 110.592C260.194 112.323 259.438 114.215 258.754 116.267C258.453 117.159 258.303 117.739 258.303 118.009C258.303 118.434 258.386 118.646 258.551 118.646C258.945 118.646 259.552 117.817 260.371 116.158C260.868 115.184 261.713 113.282 262.905 110.452C263.403 109.28 263.864 108.259 264.289 107.388C264.724 106.507 265.02 105.979 265.175 105.802C265.476 105.471 265.927 105.305 266.528 105.305H266.792C267.736 105.305 268.337 105.678 268.596 106.424C268.731 106.818 268.798 107.409 268.798 108.197C268.798 108.943 268.736 109.871 268.612 110.98C267.876 117.905 267.508 122.363 267.508 124.353C267.508 125.016 267.549 125.405 267.632 125.519H267.663C267.829 125.519 268.166 125.213 268.674 124.602C269.213 123.959 269.783 123.187 270.384 122.285C270.985 121.383 271.452 120.574 271.784 119.859C272.084 119.206 272.483 118.501 272.981 117.744C273.478 116.988 274.002 115.993 274.551 114.759C275.09 113.588 275.401 113.002 275.484 113.002L275.5 113.048C275.5 113.183 275.406 113.427 275.22 113.779C274.992 114.256 274.878 114.541 274.878 114.635C274.878 114.666 274.888 114.681 274.909 114.681C274.992 114.681 275.225 114.292 275.609 113.515C275.795 113.131 275.961 112.743 276.106 112.349C276.51 111.354 276.837 110.68 277.086 110.327C277.189 110.182 277.257 110.11 277.288 110.11C277.319 110.11 277.334 110.136 277.334 110.187C277.334 110.374 277.07 111.25 276.541 112.815C276.023 114.349 275.681 115.298 275.515 115.661C275.432 115.796 275.391 115.91 275.391 116.003C275.391 116.034 275.406 116.05 275.437 116.05C275.52 116.05 275.868 115.396 276.479 114.09C276.987 112.991 277.309 112.442 277.443 112.442C277.526 112.442 277.568 112.561 277.568 112.8C277.568 113.194 277.443 113.733 277.194 114.417C276.966 115.049 276.852 115.453 276.852 115.63C276.852 115.713 276.884 115.754 276.946 115.754C276.966 115.754 276.998 115.749 277.039 115.739C277.08 115.718 277.117 115.707 277.148 115.707C277.22 115.707 277.257 115.759 277.257 115.863C277.257 116.081 277.08 116.729 276.728 117.807C276.179 119.465 275.748 120.59 275.437 121.181C275.303 121.45 275.235 121.637 275.235 121.741C275.235 121.772 275.246 121.787 275.266 121.787L275.313 121.772C275.386 121.72 275.505 121.559 275.671 121.29C275.847 121.02 276.028 120.704 276.215 120.341C276.402 119.978 276.598 119.616 276.806 119.253C277.023 118.88 277.205 118.589 277.35 118.382C277.495 118.164 277.645 117.947 277.801 117.729L277.661 118.397C277.568 118.833 277.298 119.527 276.852 120.481C276.407 121.435 275.899 122.435 275.329 123.482C274.759 124.519 274.235 125.39 273.758 126.095C271.83 128.904 270.172 130.661 268.783 131.366C267.974 131.749 267.228 131.941 266.544 131.941Z" fill="black"/>
<path d="M277.117 132.112C276.443 132.112 275.904 132.029 275.5 131.863C273.52 131.034 272.53 128.919 272.53 125.519C272.53 123.311 272.913 120.792 273.68 117.962C274.51 114.935 275.603 112.033 276.961 109.254C278.33 106.476 279.786 104.294 281.33 102.708C282.875 101.163 284.337 100.391 285.715 100.391C286.949 100.391 288.115 101.018 289.214 102.273L290.147 103.33C290.437 102.646 290.675 102.055 290.862 101.557C292.365 97.5249 293.723 93.9225 294.936 90.7505C295.775 88.5528 296.423 86.7387 296.879 85.3081C297.346 83.8672 297.905 81.9131 298.559 79.4459C299.201 77.0928 299.953 74.5582 300.813 71.8422C301.673 69.1159 302.332 67.1981 302.788 66.0889C303.202 65.1663 303.674 64.6065 304.203 64.4096C304.731 64.2126 305.146 64.1141 305.447 64.1141C305.923 64.1141 306.411 64.2593 306.908 64.5495C307.686 64.9953 308.074 65.7727 308.074 66.8819C308.074 67.5972 306.592 72.2932 303.627 80.9698C302.746 83.4992 302.073 85.6398 301.606 87.3918C301.14 89.1437 300.647 91.3724 300.129 94.078C299.611 96.7837 299.237 98.5097 299.009 99.256C298.823 99.8988 298.59 101.034 298.31 102.661C298.03 104.289 297.817 105.73 297.672 106.984C297.579 107.896 297.387 109.203 297.097 110.903C296.827 112.623 296.641 114.111 296.537 115.365C296.434 116.609 296.309 117.34 296.164 117.558C296.091 117.641 296.055 117.744 296.055 117.869C296.055 117.941 296.071 118.009 296.102 118.071C296.143 118.133 296.164 118.185 296.164 118.226C296.164 118.34 296.107 118.434 295.993 118.506C295.817 118.506 295.729 119.823 295.729 122.456V122.907C295.729 125.333 295.672 126.545 295.558 126.545C295.402 126.545 295.262 124.762 295.138 121.196C295.055 118.905 294.972 117.76 294.889 117.76C294.775 117.76 294.702 119.019 294.671 121.538C294.651 122.824 294.604 123.467 294.531 123.467C294.49 123.467 294.417 123.353 294.314 123.125C294.075 122.762 293.956 121.606 293.956 119.657C293.935 117.957 293.899 117.107 293.847 117.107H293.832C293.738 117.293 293.63 117.387 293.505 117.387C293.433 117.387 293.396 116.656 293.396 115.194C293.396 113.764 293.427 112.312 293.49 110.84C293.531 109.866 293.583 109.063 293.645 108.43C293.687 108.047 293.707 107.767 293.707 107.591C293.707 107.435 293.692 107.357 293.661 107.357C293.609 107.368 293.526 107.637 293.412 108.166C293.298 108.684 293.189 109.358 293.085 110.187C292.899 111.69 292.707 112.769 292.51 113.422C292.396 113.816 292.323 114.013 292.292 114.013C292.272 114.013 292.261 113.909 292.261 113.702C292.261 113.453 292.277 113.048 292.308 112.489L292.323 111.556C292.323 111.048 292.298 110.794 292.246 110.794C292.184 110.794 291.867 111.462 291.297 112.8C290.499 114.655 289.405 116.972 288.016 119.75C286.638 122.518 285.518 124.633 284.658 126.095C282.896 128.945 281.299 130.785 279.869 131.615C279.299 131.874 278.739 132.024 278.19 132.066C277.64 132.097 277.283 132.112 277.117 132.112ZM277.661 126.996C277.941 126.996 278.381 126.649 278.983 125.955C280.04 124.845 281.605 122.176 283.678 117.947C285.161 114.951 286.348 112.375 287.239 110.218C288.141 108.062 288.592 106.746 288.592 106.269V106.191C288.457 105.725 288.198 105.201 287.814 104.621C287.161 103.646 286.602 103.159 286.135 103.159C286 103.159 285.71 103.242 285.264 103.408C284.912 103.553 284.668 103.688 284.534 103.812C284.409 103.936 284.347 104.107 284.347 104.325C284.347 104.47 284.321 104.595 284.269 104.698C284.228 104.802 284.176 104.854 284.114 104.854C283.979 104.854 283.564 105.564 282.87 106.984C282.258 108.218 281.952 108.959 281.952 109.208C281.952 109.239 281.958 109.26 281.968 109.27C281.978 109.28 281.984 109.306 281.984 109.348C281.984 109.503 281.88 109.788 281.673 110.203C281.372 110.815 280.947 111.825 280.398 113.235C279.848 114.635 279.33 116.034 278.843 117.433C278.231 119.268 277.801 120.922 277.552 122.394C277.314 123.855 277.194 124.928 277.194 125.612C277.194 126.535 277.35 126.996 277.661 126.996ZM288.98 105.849C289.001 105.849 289.012 105.823 289.012 105.771C289.012 105.471 288.913 105.123 288.716 104.729C288.612 104.522 288.498 104.341 288.374 104.185C288.219 103.978 288.125 103.874 288.094 103.874C288.084 103.874 288.079 103.879 288.079 103.89C288.089 103.973 288.203 104.273 288.421 104.792C288.732 105.497 288.918 105.849 288.98 105.849ZM303.876 78.373C303.907 78.373 303.959 78.3212 304.032 78.2175C304.104 78.1139 304.156 77.9998 304.187 77.8755C304.229 77.7511 304.249 77.637 304.249 77.5334C304.249 77.4401 304.234 77.3934 304.203 77.3934C304.172 77.3934 304.12 77.4815 304.047 77.6578C303.912 77.9791 303.845 78.1968 303.845 78.3108C303.845 78.3523 303.855 78.373 303.876 78.373Z" fill="black"/>
<path d="M312.288 131.941C311.645 131.941 311.06 131.775 310.531 131.444C309.992 131.06 309.577 130.645 309.287 130.2C308.955 129.692 308.712 128.956 308.556 127.992C308.401 127.027 308.323 126.053 308.323 125.068L308.354 123.311C308.354 122.668 308.334 122.337 308.292 122.316C308.219 122.316 308.038 122.56 307.748 123.047C307.406 123.596 306.877 124.244 306.162 124.99C305.457 125.737 304.851 126.276 304.343 126.608C303.524 127.095 302.752 127.338 302.026 127.338C300.564 127.338 299.491 126.545 298.807 124.959C298.548 124.254 298.419 123.399 298.419 122.394C298.419 121.274 298.579 119.973 298.901 118.491C299.512 115.671 300.497 112.805 301.855 109.892C303.565 106.212 305.478 103.496 307.592 101.744C308.65 100.873 309.8 100.438 311.044 100.438C311.977 100.438 312.915 100.702 313.859 101.231C314.729 101.718 315.165 102.065 315.165 102.273C315.165 102.324 315.134 102.35 315.071 102.35C314.978 102.35 314.833 102.283 314.636 102.148L314.558 102.102L314.543 102.117C314.543 102.148 314.698 102.335 315.009 102.677C315.445 103.154 315.662 103.449 315.662 103.563C315.662 103.594 315.647 103.61 315.616 103.61C315.512 103.61 315.237 103.387 314.791 102.941C314.273 102.423 313.926 102.164 313.75 102.164C313.563 102.164 313.47 102.21 313.47 102.304C313.47 102.418 313.63 102.61 313.952 102.879L314.465 103.33L313.796 102.879C312.884 102.309 312.045 102.024 311.277 102.024C311.06 102.024 310.863 102.06 310.687 102.133C310.521 102.205 310.438 102.257 310.438 102.288C310.438 102.34 310.681 102.371 311.169 102.381C312.278 102.423 313.117 102.775 313.688 103.439C313.781 103.543 313.827 103.61 313.827 103.641L313.812 103.657C313.77 103.657 313.61 103.553 313.33 103.346C312.708 102.9 312.107 102.677 311.526 102.677C311.257 102.677 310.977 102.729 310.687 102.832C310.407 102.926 310.116 103.112 309.816 103.392C309.515 103.662 309.282 103.931 309.116 104.201C308.95 104.46 308.867 104.667 308.867 104.823L308.883 104.947C308.914 105.03 308.93 105.097 308.93 105.149C308.93 105.253 308.893 105.305 308.821 105.305C308.686 105.305 308.473 105.802 308.183 106.798C308.069 107.191 307.986 107.554 307.934 107.886C307.893 108.218 307.504 109.12 306.768 110.592C305.939 112.323 305.182 114.215 304.498 116.267C304.198 117.159 304.047 117.739 304.047 118.009C304.047 118.434 304.13 118.646 304.296 118.646C304.69 118.646 305.296 117.817 306.115 116.158C306.613 115.184 307.458 113.282 308.65 110.452C309.147 109.28 309.609 108.259 310.034 107.388C310.469 106.507 310.764 105.979 310.92 105.802C311.22 105.471 311.671 105.305 312.273 105.305H312.537C313.48 105.305 314.081 105.678 314.341 106.424C314.475 106.818 314.543 107.409 314.543 108.197C314.543 108.943 314.48 109.871 314.356 110.98C313.62 117.905 313.252 122.363 313.252 124.353C313.252 125.016 313.294 125.405 313.377 125.519H313.408C313.573 125.519 313.91 125.213 314.418 124.602C314.957 123.959 315.527 123.187 316.129 122.285C316.73 121.383 317.196 120.574 317.528 119.859C317.829 119.206 318.228 118.501 318.725 117.744C319.223 116.988 319.746 115.993 320.296 114.759C320.835 113.588 321.146 113.002 321.229 113.002L321.244 113.048C321.244 113.183 321.151 113.427 320.964 113.779C320.736 114.256 320.622 114.541 320.622 114.635C320.622 114.666 320.633 114.681 320.653 114.681C320.736 114.681 320.97 114.292 321.353 113.515C321.54 113.131 321.705 112.743 321.851 112.349C322.255 111.354 322.581 110.68 322.83 110.327C322.934 110.182 323.001 110.11 323.032 110.11C323.063 110.11 323.079 110.136 323.079 110.187C323.079 110.374 322.815 111.25 322.286 112.815C321.768 114.349 321.426 115.298 321.26 115.661C321.177 115.796 321.135 115.91 321.135 116.003C321.135 116.034 321.151 116.05 321.182 116.05C321.265 116.05 321.612 115.396 322.224 114.09C322.732 112.991 323.053 112.442 323.188 112.442C323.271 112.442 323.312 112.561 323.312 112.8C323.312 113.194 323.188 113.733 322.939 114.417C322.711 115.049 322.597 115.453 322.597 115.63C322.597 115.713 322.628 115.754 322.69 115.754C322.711 115.754 322.742 115.749 322.784 115.739C322.825 115.718 322.861 115.707 322.892 115.707C322.965 115.707 323.001 115.759 323.001 115.863C323.001 116.081 322.825 116.729 322.473 117.807C321.923 119.465 321.493 120.59 321.182 121.181C321.047 121.45 320.98 121.637 320.98 121.741C320.98 121.772 320.99 121.787 321.011 121.787L321.058 121.772C321.13 121.72 321.249 121.559 321.415 121.29C321.591 121.02 321.773 120.704 321.959 120.341C322.146 119.978 322.343 119.616 322.55 119.253C322.768 118.88 322.949 118.589 323.095 118.382C323.24 118.164 323.39 117.947 323.545 117.729L323.405 118.397C323.312 118.833 323.043 119.527 322.597 120.481C322.151 121.435 321.643 122.435 321.073 123.482C320.503 124.519 319.98 125.39 319.503 126.095C317.575 128.904 315.916 130.661 314.527 131.366C313.719 131.749 312.972 131.941 312.288 131.941Z" fill="black"/>
<path d="M322.939 126.841C321.623 126.841 320.721 126.291 320.234 125.193C319.912 124.508 319.689 123.7 319.565 122.767C319.43 121.834 319.363 121.01 319.363 120.295C319.363 119.33 319.549 117.304 319.923 114.215C320.389 110.307 320.71 108.353 320.887 108.353L320.964 108.368C320.985 108.368 321.011 108.358 321.042 108.337C321.073 108.306 321.089 108.254 321.089 108.181C321.089 108.099 321.104 108.057 321.135 108.057C321.177 108.057 321.239 108.13 321.322 108.275C321.509 108.534 321.7 108.669 321.897 108.679C322.105 108.689 322.208 108.881 322.208 109.254C322.208 109.586 322.234 109.752 322.286 109.752C322.359 109.752 322.421 109.514 322.473 109.037C322.524 108.653 322.597 108.461 322.69 108.461C322.815 108.461 322.877 108.679 322.877 109.114C322.877 109.819 323.193 110.519 323.825 111.214C324.053 111.462 324.219 111.737 324.323 112.038C324.437 112.328 324.546 112.473 324.649 112.473C324.753 112.473 324.805 112.644 324.805 112.986L324.789 113.313C324.582 115.697 324.478 117.164 324.478 117.713C324.478 118.097 324.515 118.289 324.587 118.289C324.701 118.289 325.059 117.776 325.66 116.749C326.261 115.713 326.883 114.546 327.526 113.251C328.677 110.939 329.423 109.514 329.765 108.974C330.003 108.601 330.252 108.249 330.511 107.917C331.071 107.14 331.361 106.673 331.382 106.518C331.403 106.352 331.833 105.828 332.673 104.947C333.305 104.273 333.637 103.936 333.668 103.936L333.637 103.999C333.502 104.185 333.434 104.304 333.434 104.356C333.434 104.377 333.445 104.387 333.466 104.387C333.559 104.387 333.849 104.18 334.336 103.765C334.823 103.34 335.259 103.071 335.642 102.957C335.777 102.915 335.87 102.895 335.922 102.895C335.953 102.895 335.969 102.905 335.969 102.926C335.969 102.978 335.782 103.159 335.409 103.47C334.932 103.885 334.528 104.356 334.196 104.885L333.777 105.631C334.564 104.906 335.02 104.491 335.145 104.387C335.321 104.253 335.425 104.185 335.456 104.185C335.528 104.185 335.565 104.232 335.565 104.325C335.565 104.543 335.445 104.859 335.207 105.274C335.103 105.471 335.052 105.631 335.052 105.756C335.052 105.859 335.083 105.942 335.145 106.005C335.207 106.056 335.238 106.155 335.238 106.3C335.238 106.642 335.036 107.394 334.632 108.555L334.601 108.663C334.601 108.684 334.611 108.695 334.632 108.695C334.694 108.695 334.865 108.534 335.145 108.213C335.539 107.777 335.803 107.559 335.938 107.559C335.979 107.559 336 107.611 336 107.715C336 108.171 335.394 109.389 334.181 111.369C333.31 112.8 332.403 114.417 331.46 116.221C330.516 118.024 329.558 119.75 328.583 121.399C327.619 123.047 326.894 124.192 326.406 124.835C325.297 126.172 324.141 126.841 322.939 126.841ZM323.561 125.923C323.737 125.923 324.126 125.727 324.727 125.333C325.287 124.939 325.567 124.711 325.567 124.648C325.567 124.638 325.562 124.633 325.551 124.633C325.458 124.633 325.194 124.757 324.758 125.006C323.929 125.483 323.514 125.778 323.514 125.892C323.514 125.913 323.53 125.923 323.561 125.923ZM327.23 122.487C327.293 122.487 327.459 122.295 327.728 121.912C327.946 121.59 328.184 121.212 328.443 120.777C329.055 119.73 329.361 119.144 329.361 119.019L329.345 119.004C329.273 119.004 328.723 119.854 327.697 121.554C327.376 122.083 327.215 122.389 327.215 122.471C327.215 122.482 327.22 122.487 327.23 122.487Z" fill="black"/>
<g clip-path="url(#clip0_227_5865)">
<path d="M91.165 76.3747C91.165 76.3747 91.1281 76.2519 91.1036 76.1905C90.7717 75.1217 90.403 74.016 89.9605 72.8858C89.5794 71.9153 89.1738 70.9202 88.7559 69.9251C88.6576 69.704 88.5715 69.4706 88.4732 69.2495C88.0799 68.3281 87.662 67.3944 87.2441 66.4608C87.1089 66.1659 86.9737 65.8834 86.8384 65.5885C86.4451 64.7532 86.0518 63.9055 85.6462 63.0578C85.4864 62.7261 85.3266 62.4067 85.1791 62.075C84.7981 61.3011 84.417 60.5149 84.036 59.7286C83.8762 59.4092 83.7164 59.0775 83.5566 58.7581C83.0896 57.8244 82.6225 56.8785 82.1554 55.9448C81.9588 55.5517 81.7621 55.1709 81.5777 54.7778C81.0246 53.6721 80.4715 52.5788 79.9184 51.4731C79.6111 50.8712 79.3161 50.2569 79.0088 49.6549C78.7753 49.1881 78.5418 48.7213 78.3082 48.2545C77.9026 47.4314 77.497 46.6083 77.1037 45.7975C76.907 45.3921 76.7103 44.9867 76.526 44.5813C76.1818 43.8564 75.8377 43.1316 75.5058 42.4191C75.3214 42.0137 75.137 41.6083 74.9527 41.1906C74.6208 40.4658 74.3012 39.741 73.9939 39.0284C73.8587 38.7213 73.7235 38.4142 73.6006 38.1071C73.2196 37.2103 72.8631 36.3258 72.5313 35.4535C72.4329 35.2078 72.3469 34.9744 72.2486 34.7287C71.8921 33.7828 71.548 32.8368 71.2407 31.9155C71.2284 31.8786 71.2161 31.8295 71.2038 31.7926C70.8719 30.7975 70.5769 29.827 70.3188 28.8565C70.3188 28.8074 70.2942 28.7705 70.2819 28.7214C69.4707 25.6747 69.0405 22.8123 69.1388 20.1956C69.1265 20.3062 69.1265 20.4044 69.1143 20.515C69.1511 17.628 69.7903 15.0236 71.2407 12.8H71.1669C59.7236 30.3061 75.641 56.338 80.8648 74.3477C82.9667 81.4976 82.2046 86.4976 79.9061 89.6794C79.9061 89.6794 79.9061 89.6794 79.8938 89.6794C79.2424 90.5884 78.4557 91.3501 77.583 91.9766C77.5093 92.0258 77.4355 92.0749 77.3495 92.1364C77.0176 92.3698 76.6612 92.5663 76.2924 92.7506C76.1695 92.812 76.0589 92.8735 75.936 92.9349C75.5181 93.1314 75.0879 93.3034 74.6454 93.4508C74.4487 93.5123 74.2398 93.5614 74.0308 93.6228C73.7727 93.6965 73.5146 93.758 73.2442 93.8194C72.986 93.8685 72.7279 93.9177 72.4575 93.9668C72.2486 94.0037 72.0273 94.0159 71.8184 94.0405C71.2775 94.1019 70.7244 94.1265 70.1713 94.1265C70.0115 94.1265 69.864 94.1265 69.7042 94.1265C69.3724 94.1265 69.0528 94.0897 68.7209 94.0651C68.5489 94.0528 68.3645 94.0282 68.1924 94.0159C67.1353 93.8931 66.066 93.672 65.0212 93.3648C64.8 93.3034 64.5787 93.2297 64.3575 93.156C64.0748 93.0577 63.8044 92.9594 63.5217 92.8612C63.239 92.7506 62.9563 92.6277 62.6736 92.5049C62.3663 92.3698 62.059 92.2346 61.764 92.0749C61.4076 91.8906 61.0511 91.7064 60.7069 91.5098C60.5226 91.3993 60.3382 91.2887 60.1538 91.1781C59.822 90.9693 59.5024 90.7481 59.1828 90.5147C59.0476 90.4165 58.9124 90.3182 58.7772 90.2199C58.3347 89.8882 57.9168 89.5319 57.5112 89.1634C57.4251 89.0774 57.3391 88.9914 57.2531 88.9054C56.9212 88.586 56.6139 88.2543 56.3066 87.9103C56.2083 87.7998 56.11 87.6892 56.0116 87.5663C55.6798 87.1609 55.3725 86.7432 55.0775 86.3133C55.0775 86.3133 55.0775 86.301 55.0898 86.2887C49.362 80.8096 66.7297 73.672 67.9589 82.5909C68.4505 85.9816 66.8526 89.2371 69.0036 84.1388C70.9703 79.3968 68.8193 77.3084 66.5331 76.387C69.7903 75.0971 71.4619 73.9915 67.7008 72.7015C47.1373 62.4682 48.2558 27.2103 46.3998 14.0408C44.5561 27.2103 45.6008 62.4682 25.0373 72.6893C21.2762 73.9792 22.9355 75.0971 26.205 76.3747C23.9311 77.2961 21.7801 79.3968 23.7467 84.1266C25.8977 89.2371 24.2998 85.9693 24.7915 82.5786C26.0206 73.6598 43.3761 80.7973 37.6606 86.2764C37.6606 86.2764 37.6606 86.301 37.6729 86.301C37.3779 86.7432 37.0706 87.1609 36.7387 87.5663C36.6527 87.6769 36.5544 87.7752 36.4683 87.8857C36.161 88.242 35.8292 88.586 35.485 88.9177C35.4113 88.9914 35.3375 89.0651 35.2638 89.1388C34.8582 89.5197 34.428 89.8759 33.9732 90.2199C33.8625 90.3059 33.7396 90.3919 33.6167 90.4779C33.2849 90.7236 32.9284 90.957 32.5842 91.1781C32.4122 91.2764 32.2524 91.387 32.0803 91.4853C31.6993 91.7064 31.3182 91.9152 30.9249 92.1118C30.6668 92.2346 30.4087 92.3575 30.1506 92.4803C29.8433 92.6155 29.5483 92.7506 29.241 92.8612C28.9706 92.9594 28.7002 93.0577 28.442 93.1437C28.2085 93.2174 27.975 93.2911 27.7537 93.3648C27.0531 93.5737 26.3402 93.7457 25.6273 93.8685C25.6273 93.8685 25.615 93.8685 25.6027 93.8685C25.2709 93.9299 24.939 93.9668 24.6071 94.0037C24.4351 94.0282 24.2507 94.0405 24.0786 94.0651C23.7467 94.0897 23.4149 94.1142 23.0953 94.1265C22.9355 94.1265 22.7757 94.1265 22.6282 94.1265C22.0751 94.1265 21.522 94.1019 20.9812 94.0405C20.7722 94.0159 20.551 93.9914 20.342 93.9668C20.0839 93.93 19.8258 93.8808 19.5677 93.8194C19.2973 93.758 19.0391 93.6965 18.781 93.6228C18.5844 93.5614 18.3754 93.5246 18.1787 93.4508C17.7362 93.3034 17.2938 93.1314 16.8758 92.9349C16.7652 92.8857 16.6546 92.8243 16.544 92.7629C16.1752 92.5663 15.8065 92.3575 15.4623 92.1241C15.3886 92.0749 15.3271 92.0381 15.2534 91.9889C14.3807 91.3624 13.594 90.6007 12.9303 89.6916C12.9303 89.6916 12.918 89.6916 12.9057 89.6794C10.6072 86.4853 9.84517 81.4976 11.947 74.3477C17.1586 56.338 33.0759 30.3061 21.6326 12.8H21.5589C23.0093 15.0236 23.6361 17.6158 23.6853 20.5027C23.673 20.4044 23.6853 20.2939 23.6607 20.1956C23.7467 22.8123 23.3165 25.6747 22.5176 28.7214C22.5176 28.7582 22.493 28.8074 22.4807 28.8442C22.2226 29.8147 21.9276 30.7975 21.5957 31.7926C21.5957 31.8295 21.5712 31.854 21.5589 31.8909C21.2516 32.8245 20.9074 33.7705 20.5387 34.7287C20.4526 34.9498 20.3666 35.1833 20.2806 35.4044C19.9364 36.3012 19.5677 37.198 19.1866 38.1071C19.076 38.3773 18.9531 38.6599 18.8302 38.9425C18.4983 39.7164 18.1542 40.5026 17.7977 41.2889C17.6625 41.5837 17.5396 41.8663 17.4044 42.1611C17.0233 42.9965 16.63 43.8319 16.2367 44.6672C16.0769 45.0112 15.9171 45.3429 15.745 45.6869C15.3148 46.5714 14.8846 47.4682 14.4422 48.3527C14.2701 48.6967 14.1103 49.0284 13.9382 49.3724C13.4834 50.2815 13.0286 51.2028 12.5739 52.1242C12.5739 52.1488 12.5493 52.1734 12.537 52.1979C11.861 53.537 11.1849 54.8883 10.5212 56.2274C10.1279 57.0136 9.73455 57.8122 9.34122 58.5984C9.13227 59.0284 8.92332 59.4461 8.71436 59.876C8.3825 60.5394 8.06292 61.2028 7.74334 61.8662C7.53439 62.2962 7.32544 62.7384 7.11648 63.1684C6.73545 63.9546 6.36671 64.7409 6.01026 65.5271C5.86276 65.8465 5.71526 66.1659 5.58006 66.4731C5.16215 67.3944 4.75654 68.3035 4.36321 69.2126C4.26488 69.446 4.16655 69.6917 4.06822 69.9251C3.65031 70.9079 3.2447 71.8907 2.87595 72.8612C2.43346 74.0037 2.06472 75.0971 1.73285 76.1782C1.70827 76.2396 1.69598 76.301 1.6714 76.3625C-1.02042 85.1339 -0.221477 91.7309 2.667 96.3869C2.67929 96.4115 2.70387 96.4484 2.71617 96.4729C3.07262 97.0258 3.44136 97.5663 3.84697 98.07C3.85927 98.0823 3.88385 98.0946 3.90843 98.1068C12.1928 108.119 31.7361 106.571 42.6017 96.4729C42.6017 96.4975 42.614 96.5221 42.6263 96.5344C42.6017 96.7064 42.5771 96.8783 42.5771 97.0503C42.5771 97.554 42.6755 98.0209 42.8476 98.4631C42.1715 99.2739 41.7413 100.306 41.7413 101.436C41.7413 102.972 42.4911 104.311 43.6342 105.171V105.208C42.9828 105.896 42.5771 106.817 42.5771 107.849C42.5771 108.881 42.9828 109.802 43.6342 110.49V130.797C42.4911 131.645 41.7413 132.996 41.7413 134.519C41.7413 137.099 43.8432 139.2 46.4121 139.2C48.981 139.2 51.0951 137.112 51.0951 134.519C51.0951 132.996 50.3453 131.645 49.2145 130.797V110.49C49.8659 109.802 50.2716 108.881 50.2716 107.861C50.2716 106.841 49.8659 105.92 49.2145 105.232V105.183C50.3576 104.335 51.0951 102.984 51.0951 101.448C51.0951 100.306 50.6649 99.2862 49.9889 98.4754C50.1609 98.0331 50.2593 97.5663 50.2593 97.0626C50.2593 96.8906 50.2347 96.7186 50.2101 96.5466C50.2101 96.5221 50.2224 96.4975 50.2347 96.4729C61.1126 106.571 80.6559 108.119 88.9403 98.0946C88.9526 98.0823 88.9771 98.07 88.9894 98.0577C89.3951 97.5663 89.7515 97.038 90.0957 96.4975C90.1325 96.4484 90.1571 96.3992 90.194 96.3501C90.5381 95.7973 90.8454 95.2199 91.1281 94.6056C91.1281 94.5811 91.1527 94.5565 91.165 94.5196C91.4354 93.9177 91.6813 93.2789 91.8902 92.6155C91.8902 92.5909 91.9148 92.554 91.9148 92.5295C92.1237 91.8415 92.3081 91.1167 92.4433 90.3796C92.4433 90.355 92.4433 90.3305 92.4556 90.3059C93.1562 86.473 92.8366 81.8416 91.165 76.3625V76.3747Z" fill="#D02027"/>
</g>
<defs>
<clipPath id="clip0_227_5865">
<rect width="92.8" height="126.4" fill="white" transform="translate(0 12.8)"/>
</clipPath>
</defs>
</svg>
