<svg width="42" height="42" viewBox="0 0 42 42" fill="none" xmlns="http://www.w3.org/2000/svg">
<path d="M37.7878 12.6053C37.5885 11.8657 37.199 11.1913 36.658 10.6491C36.117 10.1068 35.4434 9.71577 34.7043 9.51476C31.9638 8.76226 21.0001 8.75001 21.0001 8.75001C21.0001 8.75001 10.0381 8.73776 7.29584 9.45701C6.55721 9.66727 5.88503 10.0639 5.34383 10.6087C4.80263 11.1536 4.41059 11.8285 4.20534 12.5685C3.48259 15.309 3.47559 20.993 3.47559 20.993C3.47559 20.993 3.46859 26.705 4.18609 29.4175C4.58859 30.9173 5.76984 32.102 7.27134 32.5063C10.0398 33.2588 20.9738 33.271 20.9738 33.271C20.9738 33.271 31.9376 33.2833 34.6781 32.5658C35.4175 32.3651 36.0916 31.9749 36.634 31.4338C37.1763 30.8927 37.568 30.2194 37.7703 29.4805C38.4948 26.7418 38.5001 21.0595 38.5001 21.0595C38.5001 21.0595 38.5351 15.3458 37.7878 12.6053ZM17.4931 26.2588L17.5018 15.7588L26.6141 21.0175L17.4931 26.2588Z" fill="black"/>
</svg>
